<svg width="24" height="24" viewBox="0 0 24 24" fill="none" xmlns="http://www.w3.org/2000/svg">
<path fill-rule="evenodd" clip-rule="evenodd" d="M19.2 19.2C17.868 19.2 16.8 20.268 16.8 21.6C16.8 22.9255 17.8745 24 19.2 24C20.5255 24 21.6 22.9255 21.6 21.6C21.6 20.268 20.52 19.2 19.2 19.2ZM0 0L0 2.4H2.4L6.72 11.508L5.088 14.448C4.908 14.784 4.8 15.18 4.8 15.6C4.8 16.9255 5.87452 18 7.2 18H21.6V15.6H7.704C7.53831 15.6 7.404 15.4657 7.404 15.3C7.404 15.24 7.416 15.192 7.44 15.156L8.52 13.2H17.46C18.36 13.2 19.152 12.696 19.56 11.964L23.856 4.2C23.94 4.008 24 3.804 24 3.6C24 2.93726 23.4627 2.4 22.8 2.4H5.052L3.924 0M7.2 19.2C5.868 19.2 4.8 20.268 4.8 21.6C4.8 22.9255 5.87452 24 7.2 24C8.52548 24 9.6 22.9255 9.6 21.6C9.6 20.268 8.52 19.2 7.2 19.2Z" fill="#667085"/>
</svg>
